<mxfile host="65bd71144e">
    <diagram id="pcJsZtXrdbzjlejqAQah" name="Seite-1">
        <mxGraphModel dx="1690" dy="932" grid="1" gridSize="10" guides="1" tooltips="1" connect="1" arrows="1" fold="1" page="1" pageScale="1" pageWidth="50" pageHeight="50" background="#808080" math="0" shadow="0">
            <root>
                <mxCell id="0"/>
                <mxCell id="1" parent="0"/>
                <mxCell id="36" value="" style="rounded=0;whiteSpace=wrap;html=1;" parent="1" vertex="1">
                    <mxGeometry x="-440" y="-290" width="1140" height="940" as="geometry"/>
                </mxCell>
                <mxCell id="61" value="Alt: True (fÃ¼r jeden Datentyp &#10;(HTML, JS, CSS, IMAGE, OTHER)" style="swimlane;horizontal=0;startSize=40;swimlaneFillColor=#6666FF;verticalAlign=middle;" parent="1" vertex="1">
                    <mxGeometry x="-70" y="175" width="750" height="365" as="geometry"/>
                </mxCell>
                <mxCell id="77" value="Loop" style="swimlane;horizontal=0;labelBackgroundColor=none;gradientColor=none;swimlaneFillColor=#BD5F00;verticalAlign=top;" parent="1" vertex="1">
                    <mxGeometry x="-10" y="240" width="680" height="240" as="geometry"/>
                </mxCell>
                <mxCell id="2" value="Actor" style="shape=umlActor;verticalLabelPosition=bottom;verticalAlign=top;html=1;outlineConnect=0;" parent="1" vertex="1">
                    <mxGeometry x="-420" y="-170" width="30" height="60" as="geometry"/>
                </mxCell>
                <mxCell id="3" value="" style="rounded=0;whiteSpace=wrap;html=1;" parent="1" vertex="1">
                    <mxGeometry x="-250" y="-150" width="50" height="790" as="geometry"/>
                </mxCell>
                <mxCell id="4" value="Worker" style="rounded=0;whiteSpace=wrap;html=1;horizontal=0;" parent="1" vertex="1">
                    <mxGeometry x="50" y="-67" width="50" height="687" as="geometry"/>
                </mxCell>
                <mxCell id="5" value="" style="endArrow=classic;html=1;entryX=0;entryY=0;entryDx=0;entryDy=0;exitX=1.013;exitY=0.083;exitDx=0;exitDy=0;exitPerimeter=0;" parent="1" source="35" target="4" edge="1">
                    <mxGeometry width="50" height="50" relative="1" as="geometry">
                        <mxPoint x="-170" y="-67" as="sourcePoint"/>
                        <mxPoint x="50" y="30" as="targetPoint"/>
                    </mxGeometry>
                </mxCell>
                <mxCell id="6" value="&amp;lt;&amp;lt;Create&amp;gt;&amp;gt; Thread for URL" style="edgeLabel;html=1;align=center;verticalAlign=middle;resizable=0;points=[];" parent="5" vertex="1" connectable="0">
                    <mxGeometry x="-0.6263" relative="1" as="geometry">
                        <mxPoint x="73" y="-2" as="offset"/>
                    </mxGeometry>
                </mxCell>
                <mxCell id="7" value="main" style="rounded=0;whiteSpace=wrap;html=1;" parent="1" vertex="1">
                    <mxGeometry x="-262" y="-240" width="75" height="40" as="geometry"/>
                </mxCell>
                <mxCell id="8" value="" style="endArrow=none;dashed=1;html=1;entryX=0.5;entryY=1;entryDx=0;entryDy=0;" parent="1" source="3" target="7" edge="1">
                    <mxGeometry width="50" height="50" relative="1" as="geometry">
                        <mxPoint x="-150" y="-140" as="sourcePoint"/>
                        <mxPoint x="-100" y="-190" as="targetPoint"/>
                    </mxGeometry>
                </mxCell>
                <mxCell id="9" value="Worker&lt;br&gt;Thread" style="rounded=0;whiteSpace=wrap;html=1;" parent="1" vertex="1">
                    <mxGeometry x="29" y="-240" width="93" height="40" as="geometry"/>
                </mxCell>
                <mxCell id="10" value="" style="endArrow=none;dashed=1;html=1;entryX=0.5;entryY=0;entryDx=0;entryDy=0;exitX=0.5;exitY=1;exitDx=0;exitDy=0;" parent="1" source="9" target="4" edge="1">
                    <mxGeometry width="50" height="50" relative="1" as="geometry">
                        <mxPoint x="-50" y="-140" as="sourcePoint"/>
                        <mxPoint y="-190" as="targetPoint"/>
                    </mxGeometry>
                </mxCell>
                <mxCell id="11" value="Start Spider&amp;nbsp;&lt;br&gt;with given Instructions" style="endArrow=classic;html=1;entryX=0;entryY=0;entryDx=0;entryDy=0;exitX=1;exitY=0.3333333333333333;exitDx=0;exitDy=0;exitPerimeter=0;" parent="1" source="2" target="3" edge="1">
                    <mxGeometry width="50" height="50" relative="1" as="geometry">
                        <mxPoint x="-340" y="-100" as="sourcePoint"/>
                        <mxPoint x="-290" y="-150" as="targetPoint"/>
                    </mxGeometry>
                </mxCell>
                <mxCell id="12" value="Internet / Website" style="rounded=0;whiteSpace=wrap;html=1;" parent="1" vertex="1">
                    <mxGeometry x="265" y="-240" width="120" height="40" as="geometry"/>
                </mxCell>
                <mxCell id="13" value="" style="rounded=0;whiteSpace=wrap;html=1;" parent="1" vertex="1">
                    <mxGeometry x="300" y="-37.25" width="50" height="80" as="geometry"/>
                </mxCell>
                <mxCell id="14" value="" style="endArrow=none;dashed=1;html=1;dashPattern=1 3;strokeWidth=2;entryX=0.5;entryY=1;entryDx=0;entryDy=0;exitX=0.5;exitY=0;exitDx=0;exitDy=0;" parent="1" source="13" target="12" edge="1">
                    <mxGeometry width="50" height="50" relative="1" as="geometry">
                        <mxPoint x="290" y="-130" as="sourcePoint"/>
                        <mxPoint x="340" y="-180" as="targetPoint"/>
                    </mxGeometry>
                </mxCell>
                <mxCell id="15" value="" style="endArrow=classic;html=1;entryX=0;entryY=0;entryDx=0;entryDy=0;exitX=0.983;exitY=0.105;exitDx=0;exitDy=0;exitPerimeter=0;" parent="1" source="37" target="13" edge="1">
                    <mxGeometry width="50" height="50" relative="1" as="geometry">
                        <mxPoint x="100" y="-42" as="sourcePoint"/>
                        <mxPoint x="210" y="-42" as="targetPoint"/>
                    </mxGeometry>
                </mxCell>
                <mxCell id="16" value="Http get request" style="edgeLabel;html=1;align=center;verticalAlign=middle;resizable=0;points=[];" parent="15" vertex="1" connectable="0">
                    <mxGeometry x="-0.254" y="-1" relative="1" as="geometry">
                        <mxPoint as="offset"/>
                    </mxGeometry>
                </mxCell>
                <mxCell id="17" value="Http response" style="endArrow=classic;html=1;exitX=0;exitY=1;exitDx=0;exitDy=0;entryX=1.042;entryY=0.856;entryDx=0;entryDy=0;dashed=1;entryPerimeter=0;" parent="1" source="13" target="37" edge="1">
                    <mxGeometry x="-0.0943" width="50" height="50" relative="1" as="geometry">
                        <mxPoint x="180" y="58" as="sourcePoint"/>
                        <mxPoint x="230" y="8" as="targetPoint"/>
                        <mxPoint as="offset"/>
                    </mxGeometry>
                </mxCell>
                <mxCell id="18" value="" style="endArrow=none;dashed=1;html=1;dashPattern=1 3;strokeWidth=2;entryX=0.5;entryY=1;entryDx=0;entryDy=0;exitX=0.5;exitY=0;exitDx=0;exitDy=0;" parent="1" source="19" target="13" edge="1">
                    <mxGeometry width="50" height="50" relative="1" as="geometry">
                        <mxPoint x="325" y="68" as="sourcePoint"/>
                        <mxPoint x="350" y="58" as="targetPoint"/>
                    </mxGeometry>
                </mxCell>
                <mxCell id="19" value="" style="rounded=0;whiteSpace=wrap;html=1;" parent="1" vertex="1">
                    <mxGeometry x="300" y="250" width="50" height="30" as="geometry"/>
                </mxCell>
                <mxCell id="20" value="Download Data" style="rounded=0;whiteSpace=wrap;html=1;horizontal=0;" parent="1" vertex="1">
                    <mxGeometry x="90" y="230" width="50" height="260" as="geometry"/>
                </mxCell>
                <mxCell id="21" value="" style="endArrow=classic;html=1;dashed=1;exitX=0;exitY=1;exitDx=0;exitDy=0;" parent="1" source="19" edge="1">
                    <mxGeometry width="50" height="50" relative="1" as="geometry">
                        <mxPoint x="210" y="128" as="sourcePoint"/>
                        <mxPoint x="140" y="280" as="targetPoint"/>
                    </mxGeometry>
                </mxCell>
                <mxCell id="79" value="&lt;font&gt;Stream&lt;/font&gt;" style="edgeLabel;html=1;align=center;verticalAlign=middle;resizable=0;points=[];labelBackgroundColor=none;fontColor=#FFFFFF;" parent="21" vertex="1" connectable="0">
                    <mxGeometry x="-0.4875" y="2" relative="1" as="geometry">
                        <mxPoint as="offset"/>
                    </mxGeometry>
                </mxCell>
                <mxCell id="22" value="download_file(URL)" style="endArrow=classic;html=1;entryX=0;entryY=0;entryDx=0;entryDy=0;exitX=1.047;exitY=0.075;exitDx=0;exitDy=0;exitPerimeter=0;labelBackgroundColor=none;fontColor=#FFFFFF;" parent="1" source="20" target="19" edge="1">
                    <mxGeometry x="-0.0145" y="-10" width="50" height="50" relative="1" as="geometry">
                        <mxPoint x="140" y="250" as="sourcePoint"/>
                        <mxPoint x="230" y="78" as="targetPoint"/>
                        <mxPoint as="offset"/>
                    </mxGeometry>
                </mxCell>
                <mxCell id="23" value="URL Queue" style="shape=cylinder3;whiteSpace=wrap;html=1;boundedLbl=1;backgroundOutline=1;size=15;" parent="1" vertex="1">
                    <mxGeometry x="495" y="-280" width="60" height="80" as="geometry"/>
                </mxCell>
                <mxCell id="24" value="" style="endArrow=none;dashed=1;html=1;dashPattern=1 3;strokeWidth=2;entryX=0.5;entryY=1;entryDx=0;entryDy=0;entryPerimeter=0;exitX=0.5;exitY=0;exitDx=0;exitDy=0;" parent="1" source="25" target="23" edge="1">
                    <mxGeometry width="50" height="50" relative="1" as="geometry">
                        <mxPoint x="500" y="-130" as="sourcePoint"/>
                        <mxPoint x="550" y="-180" as="targetPoint"/>
                    </mxGeometry>
                </mxCell>
                <mxCell id="25" value="" style="rounded=0;whiteSpace=wrap;html=1;" parent="1" vertex="1">
                    <mxGeometry x="500" y="-150" width="50" height="760" as="geometry"/>
                </mxCell>
                <mxCell id="26" value="" style="endArrow=classic;html=1;entryX=0.01;entryY=0.018;entryDx=0;entryDy=0;entryPerimeter=0;" parent="1" target="25" edge="1">
                    <mxGeometry width="50" height="50" relative="1" as="geometry">
                        <mxPoint x="-200" y="-140" as="sourcePoint"/>
                        <mxPoint x="500" y="-130" as="targetPoint"/>
                    </mxGeometry>
                </mxCell>
                <mxCell id="27" value="Fill Queue with start URL's" style="edgeLabel;html=1;align=center;verticalAlign=middle;resizable=0;points=[];" parent="26" vertex="1" connectable="0">
                    <mxGeometry x="-0.7" y="1" relative="1" as="geometry">
                        <mxPoint as="offset"/>
                    </mxGeometry>
                </mxCell>
                <mxCell id="28" value="" style="endArrow=classic;html=1;entryX=0;entryY=0.052;entryDx=0;entryDy=0;entryPerimeter=0;exitX=1.037;exitY=0.022;exitDx=0;exitDy=0;exitPerimeter=0;" parent="1" source="35" target="25" edge="1">
                    <mxGeometry width="50" height="50" relative="1" as="geometry">
                        <mxPoint x="-160" y="-121" as="sourcePoint"/>
                        <mxPoint x="200" y="-120" as="targetPoint"/>
                    </mxGeometry>
                </mxCell>
                <mxCell id="29" value="Get URL()" style="edgeLabel;html=1;align=center;verticalAlign=middle;resizable=0;points=[];" parent="28" vertex="1" connectable="0">
                    <mxGeometry x="0.493" relative="1" as="geometry">
                        <mxPoint as="offset"/>
                    </mxGeometry>
                </mxCell>
                <mxCell id="30" value="" style="endArrow=classic;html=1;dashed=1;entryX=1.054;entryY=0.036;entryDx=0;entryDy=0;entryPerimeter=0;" parent="1" edge="1" target="35">
                    <mxGeometry width="50" height="50" relative="1" as="geometry">
                        <mxPoint x="500" y="-99.99999999999989" as="sourcePoint"/>
                        <mxPoint x="-170" y="-100" as="targetPoint"/>
                    </mxGeometry>
                </mxCell>
                <mxCell id="31" value="URL" style="edgeLabel;html=1;align=center;verticalAlign=middle;resizable=0;points=[];" parent="30" vertex="1" connectable="0">
                    <mxGeometry x="0.5086" y="3" relative="1" as="geometry">
                        <mxPoint as="offset"/>
                    </mxGeometry>
                </mxCell>
                <mxCell id="34" value="" style="endArrow=classic;html=1;exitX=0;exitY=1;exitDx=0;exitDy=0;dashed=1;entryX=0.98;entryY=0.986;entryDx=0;entryDy=0;entryPerimeter=0;" parent="1" source="4" target="35" edge="1">
                    <mxGeometry width="50" height="50" relative="1" as="geometry">
                        <mxPoint x="-90" y="300" as="sourcePoint"/>
                        <mxPoint x="-200" y="270" as="targetPoint"/>
                    </mxGeometry>
                </mxCell>
                <mxCell id="35" value="ThreadPoolExecutor" style="rounded=0;whiteSpace=wrap;html=1;horizontal=0;" parent="1" vertex="1">
                    <mxGeometry x="-225" y="-130" width="50" height="760" as="geometry"/>
                </mxCell>
                <mxCell id="37" value="request /&lt;br&gt;parser" style="rounded=0;whiteSpace=wrap;html=1;horizontal=0;" parent="1" vertex="1">
                    <mxGeometry x="90" y="-50" width="50" height="105.5" as="geometry"/>
                </mxCell>
                <mxCell id="40" value="Dict gecrawlte Daten" style="edgeStyle=elbowEdgeStyle;elbow=horizontal;endArrow=classic;html=1;exitX=1;exitY=1;exitDx=0;exitDy=0;entryX=1.03;entryY=0.205;entryDx=0;entryDy=0;dashed=1;entryPerimeter=0;" parent="1" source="37" target="4" edge="1">
                    <mxGeometry x="-0.3612" y="30" width="50" height="50" relative="1" as="geometry">
                        <mxPoint x="200" y="220" as="sourcePoint"/>
                        <mxPoint x="250" y="170" as="targetPoint"/>
                        <Array as="points">
                            <mxPoint x="150" y="70"/>
                        </Array>
                        <mxPoint y="1" as="offset"/>
                    </mxGeometry>
                </mxCell>
                <mxCell id="41" value="" style="edgeStyle=elbowEdgeStyle;elbow=horizontal;endArrow=classic;html=1;exitX=0.98;exitY=0.012;exitDx=0;exitDy=0;entryX=1;entryY=0;entryDx=0;entryDy=0;exitPerimeter=0;" parent="1" source="4" target="37" edge="1">
                    <mxGeometry width="50" height="50" relative="1" as="geometry">
                        <mxPoint x="170" y="40" as="sourcePoint"/>
                        <mxPoint x="220" y="-10" as="targetPoint"/>
                        <Array as="points">
                            <mxPoint x="150" y="-67"/>
                        </Array>
                    </mxGeometry>
                </mxCell>
                <mxCell id="42" value="crawl_page(URL)" style="edgeLabel;html=1;align=center;verticalAlign=middle;resizable=0;points=[];" parent="41" vertex="1" connectable="0">
                    <mxGeometry x="-0.1532" y="-1" relative="1" as="geometry">
                        <mxPoint x="61" y="-1" as="offset"/>
                    </mxGeometry>
                </mxCell>
                <mxCell id="43" value="Storage" style="shape=cylinder3;whiteSpace=wrap;html=1;boundedLbl=1;backgroundOutline=1;size=15;" parent="1" vertex="1">
                    <mxGeometry x="590" y="-280" width="60" height="80" as="geometry"/>
                </mxCell>
                <mxCell id="44" value="" style="rounded=0;whiteSpace=wrap;html=1;" parent="1" vertex="1">
                    <mxGeometry x="595" y="-150" width="50" height="760" as="geometry"/>
                </mxCell>
                <mxCell id="45" value="" style="edgeStyle=elbowEdgeStyle;elbow=horizontal;endArrow=classic;html=1;entryX=1;entryY=0;entryDx=0;entryDy=0;exitX=0.997;exitY=0.404;exitDx=0;exitDy=0;exitPerimeter=0;" parent="1" source="4" target="20" edge="1">
                    <mxGeometry width="50" height="50" relative="1" as="geometry">
                        <mxPoint x="120" y="83" as="sourcePoint"/>
                        <mxPoint x="160" y="100" as="targetPoint"/>
                        <Array as="points">
                            <mxPoint x="170" y="83"/>
                        </Array>
                    </mxGeometry>
                </mxCell>
                <mxCell id="46" value="store_data_*( HTML)" style="edgeLabel;html=1;align=center;verticalAlign=middle;resizable=0;points=[];labelBackgroundColor=none;" parent="45" vertex="1" connectable="0">
                    <mxGeometry x="-0.1532" y="-1" relative="1" as="geometry">
                        <mxPoint x="70" y="-2" as="offset"/>
                    </mxGeometry>
                </mxCell>
                <mxCell id="47" value="Store Data" style="rounded=0;whiteSpace=wrap;html=1;horizontal=0;" parent="1" vertex="1">
                    <mxGeometry x="130" y="320" width="50" height="120" as="geometry"/>
                </mxCell>
                <mxCell id="48" value="" style="edgeStyle=elbowEdgeStyle;elbow=horizontal;endArrow=classic;html=1;exitX=1;exitY=0.283;exitDx=0;exitDy=0;exitPerimeter=0;entryX=1;entryY=0;entryDx=0;entryDy=0;labelBackgroundColor=none;" parent="1" source="20" target="47" edge="1">
                    <mxGeometry width="50" height="50" relative="1" as="geometry">
                        <mxPoint x="160" y="155" as="sourcePoint"/>
                        <mxPoint x="180" y="170" as="targetPoint"/>
                        <Array as="points">
                            <mxPoint x="210" y="155"/>
                        </Array>
                    </mxGeometry>
                </mxCell>
                <mxCell id="49" value="store_data(data)" style="edgeLabel;html=1;align=center;verticalAlign=middle;resizable=0;points=[];labelBackgroundColor=none;fontColor=#FFFFFF;" parent="48" vertex="1" connectable="0">
                    <mxGeometry x="-0.1532" y="-1" relative="1" as="geometry">
                        <mxPoint x="71" y="5" as="offset"/>
                    </mxGeometry>
                </mxCell>
                <mxCell id="62" value="" style="edgeStyle=elbowEdgeStyle;elbow=horizontal;endArrow=classic;html=1;exitX=1;exitY=1;exitDx=0;exitDy=0;entryX=1.05;entryY=0.898;entryDx=0;entryDy=0;entryPerimeter=0;dashed=1;" parent="1" source="47" target="20" edge="1">
                    <mxGeometry width="50" height="50" relative="1" as="geometry">
                        <mxPoint x="149.1500000000001" y="184.48000000000002" as="sourcePoint"/>
                        <mxPoint x="190" y="195" as="targetPoint"/>
                        <Array as="points">
                            <mxPoint x="200" y="320"/>
                        </Array>
                    </mxGeometry>
                </mxCell>
                <mxCell id="64" value="" style="edgeStyle=elbowEdgeStyle;elbow=horizontal;endArrow=classic;html=1;exitX=1;exitY=1;exitDx=0;exitDy=0;dashed=1;entryX=1.013;entryY=0.831;entryDx=0;entryDy=0;entryPerimeter=0;" parent="1" source="20" target="4" edge="1">
                    <mxGeometry width="50" height="50" relative="1" as="geometry">
                        <mxPoint x="150" y="243.57999999999993" as="sourcePoint"/>
                        <mxPoint x="100" y="510" as="targetPoint"/>
                        <Array as="points">
                            <mxPoint x="170" y="504"/>
                        </Array>
                    </mxGeometry>
                </mxCell>
                <mxCell id="67" value="" style="endArrow=classic;html=1;exitX=1;exitY=0.25;exitDx=0;exitDy=0;entryX=-0.001;entryY=0.657;entryDx=0;entryDy=0;entryPerimeter=0;" parent="1" source="47" target="44" edge="1">
                    <mxGeometry width="50" height="50" relative="1" as="geometry">
                        <mxPoint x="250" y="340" as="sourcePoint"/>
                        <mxPoint x="300" y="290" as="targetPoint"/>
                    </mxGeometry>
                </mxCell>
                <mxCell id="69" value="" style="rounded=0;whiteSpace=wrap;html=1;" parent="1" vertex="1">
                    <mxGeometry x="90" y="113" width="50" height="25" as="geometry"/>
                </mxCell>
                <mxCell id="70" value="" style="edgeStyle=elbowEdgeStyle;elbow=horizontal;endArrow=classic;html=1;exitX=0.98;exitY=0.24;exitDx=0;exitDy=0;entryX=1;entryY=0;entryDx=0;entryDy=0;exitPerimeter=0;" parent="1" source="4" target="69" edge="1">
                    <mxGeometry width="50" height="50" relative="1" as="geometry">
                        <mxPoint x="140" y="95.99999999999955" as="sourcePoint"/>
                        <mxPoint x="180" y="113" as="targetPoint"/>
                        <Array as="points">
                            <mxPoint x="170" y="100"/>
                        </Array>
                    </mxGeometry>
                </mxCell>
                <mxCell id="71" value="fill_queue(links)" style="edgeLabel;html=1;align=center;verticalAlign=middle;resizable=0;points=[];" parent="70" vertex="1" connectable="0">
                    <mxGeometry x="-0.1532" y="-1" relative="1" as="geometry">
                        <mxPoint x="46" y="-1" as="offset"/>
                    </mxGeometry>
                </mxCell>
                <mxCell id="72" value="" style="endArrow=classic;html=1;entryX=0;entryY=0.355;entryDx=0;entryDy=0;entryPerimeter=0;exitX=1;exitY=0.25;exitDx=0;exitDy=0;" parent="1" source="69" target="25" edge="1">
                    <mxGeometry width="50" height="50" relative="1" as="geometry">
                        <mxPoint x="140" y="124" as="sourcePoint"/>
                        <mxPoint x="494.9999999999999" y="123.9999999999999" as="targetPoint"/>
                    </mxGeometry>
                </mxCell>
                <mxCell id="73" value="URL's" style="edgeLabel;html=1;align=center;verticalAlign=middle;resizable=0;points=[];" parent="72" vertex="1" connectable="0">
                    <mxGeometry x="-0.2211" y="-2" relative="1" as="geometry">
                        <mxPoint as="offset"/>
                    </mxGeometry>
                </mxCell>
                <mxCell id="74" value="" style="edgeStyle=elbowEdgeStyle;elbow=horizontal;endArrow=classic;html=1;entryX=0.98;entryY=0.319;entryDx=0;entryDy=0;entryPerimeter=0;dashed=1;" parent="1" target="4" edge="1">
                    <mxGeometry width="50" height="50" relative="1" as="geometry">
                        <mxPoint x="140" y="138" as="sourcePoint"/>
                        <mxPoint x="181" y="153.12" as="targetPoint"/>
                        <Array as="points">
                            <mxPoint x="170" y="140"/>
                        </Array>
                    </mxGeometry>
                </mxCell>
                <mxCell id="76" value="" style="endArrow=none;dashed=1;html=1;dashPattern=1 3;strokeWidth=2;entryX=0.5;entryY=1;entryDx=0;entryDy=0;entryPerimeter=0;exitX=0.5;exitY=0;exitDx=0;exitDy=0;" parent="1" source="44" target="43" edge="1">
                    <mxGeometry width="50" height="50" relative="1" as="geometry">
                        <mxPoint x="535" y="-140" as="sourcePoint"/>
                        <mxPoint x="535" y="-190" as="targetPoint"/>
                    </mxGeometry>
                </mxCell>
                <mxCell id="80" value="" style="endArrow=classic;html=1;exitX=-0.019;exitY=0.368;exitDx=0;exitDy=0;dashed=1;exitPerimeter=0;entryX=1;entryY=0.75;entryDx=0;entryDy=0;" edge="1" parent="1" source="25" target="69">
                    <mxGeometry x="-0.0943" width="50" height="50" relative="1" as="geometry">
                        <mxPoint x="310" y="48" as="sourcePoint"/>
                        <mxPoint x="140" y="130" as="targetPoint"/>
                        <mxPoint as="offset"/>
                    </mxGeometry>
                </mxCell>
                <mxCell id="81" value="" style="endArrow=classic;html=1;dashed=1;exitX=-0.042;exitY=0.028;exitDx=0;exitDy=0;exitPerimeter=0;entryX=1.004;entryY=0.021;entryDx=0;entryDy=0;entryPerimeter=0;" edge="1" parent="1" source="25" target="3">
                    <mxGeometry width="50" height="50" relative="1" as="geometry">
                        <mxPoint x="510" y="-89.99999999999989" as="sourcePoint"/>
                        <mxPoint x="-160" y="-90.00000000000011" as="targetPoint"/>
                    </mxGeometry>
                </mxCell>
                <mxCell id="82" value="URL" style="edgeLabel;html=1;align=center;verticalAlign=middle;resizable=0;points=[];" vertex="1" connectable="0" parent="81">
                    <mxGeometry x="0.5086" y="3" relative="1" as="geometry">
                        <mxPoint as="offset"/>
                    </mxGeometry>
                </mxCell>
                <mxCell id="83" value="" style="endArrow=classic;html=1;exitX=-0.057;exitY=0.734;exitDx=0;exitDy=0;dashed=1;entryX=1;entryY=0.75;entryDx=0;entryDy=0;exitPerimeter=0;" edge="1" parent="1" source="44" target="47">
                    <mxGeometry width="50" height="50" relative="1" as="geometry">
                        <mxPoint x="418" y="410.64" as="sourcePoint"/>
                        <mxPoint x="192" y="409.9999999999999" as="targetPoint"/>
                    </mxGeometry>
                </mxCell>
            </root>
        </mxGraphModel>
    </diagram>
</mxfile>